<svg version="1.1" id="Layer_1" xmlns="http://www.w3.org/2000/svg" xmlns:xlink="http://www.w3.org/1999/xlink" x="0px" y="0px"
	 width="100%" viewBox="0 0 1024 1024" enable-background="new 0 0 1024 1024" xml:space="preserve">
<path fill="#000000" opacity="1.000000" stroke="none" 
	d="
M401.989136,18.799400 
	C428.788940,12.993707 455.411926,9.187339 482.405029,7.562590 
	C559.487549,2.922892 633.762207,15.099434 705.153870,44.385113 
	C775.812988,73.370316 836.724060,116.380592 888.043274,172.954346 
	C934.687195,224.374130 969.229187,282.963593 991.770752,348.596924 
	C1004.573242,385.873596 1012.670227,424.172272 1016.507141,463.427063 
	C1019.530518,494.358673 1019.956787,525.301575 1017.099365,556.194275 
	C1007.623169,658.645386 971.166382,750.479797 906.171143,830.318970 
	C833.472290,919.621277 740.693604,977.699768 628.647278,1004.621277 
	C596.696838,1012.298096 564.230896,1016.287842 531.337769,1017.500610 
	C459.212463,1020.159668 389.710022,1008.026489 322.987549,980.816772 
	C243.184753,948.272888 175.969482,898.400696 121.451790,831.593262 
	C75.381035,775.137024 42.985691,711.649475 24.331484,641.197266 
	C16.823498,612.841492 12.015694,584.035095 9.480324,554.782349 
	C7.186308,528.314453 6.919166,501.864166 8.895226,475.431152 
	C13.429435,414.778656 28.173231,356.706116 53.604824,301.360596 
	C80.940964,241.870331 118.371399,189.586411 165.936630,144.731003 
	C228.356689,85.867065 301.096100,45.214821 384.143829,23.246550 
	C389.934906,21.714663 395.765411,20.331865 401.989136,18.799400 
M496.013214,14.594360 
	C488.076111,15.652356 480.063416,15.390374 472.087158,16.046625 
	C440.311279,18.661003 409.085114,24.157469 378.429657,32.866661 
	C279.536896,60.962032 196.971436,114.563797 131.025375,193.215576 
	C67.486610,268.996277 30.350868,356.563385 18.542664,454.691010 
	C14.577684,487.640472 14.177766,520.756958 17.076094,553.918274 
	C19.968119,587.007446 25.721832,619.494507 35.066486,651.363770 
	C63.183319,747.254211 115.375862,827.701660 191.516464,892.174377 
	C276.573151,964.196960 375.350464,1002.989075 486.530945,1009.440186 
	C528.030823,1011.848145 569.373230,1008.871460 610.270874,1000.704224 
	C670.735229,988.629333 727.128357,966.318115 779.133057,933.277344 
	C849.973145,888.269531 906.150513,829.147644 947.495972,756.059998 
	C985.368713,689.111145 1006.068542,617.007935 1010.436218,540.373474 
	C1012.217346,509.120941 1011.126526,477.816833 1006.939819,446.641388 
	C1001.212769,403.995941 990.584106,362.689423 974.089478,323.006744 
	C938.188538,236.636322 882.650940,165.424606 807.062195,110.271553 
	C714.737366,42.907101 610.998840,11.839931 496.013214,14.594360 
z"/>
<path fill="#000000" opacity="1.000000" stroke="none" 
	d="
M429.414001,370.132019 
	C440.699615,370.143463 451.526367,370.220581 462.352570,370.172119 
	C465.731934,370.156982 468.611328,372.167755 472.092102,371.967499 
	C482.823090,371.350098 493.357422,369.683899 503.857513,367.409180 
	C509.161896,366.260071 514.694519,365.845032 520.137878,365.723999 
	C531.298035,365.475830 542.473572,365.870117 553.631042,365.567627 
	C560.399963,365.384125 567.181824,363.623383 573.896545,363.927094 
	C586.701050,364.506287 599.410645,366.048920 612.123474,368.248352 
	C626.520691,370.739227 639.683533,377.203674 653.926636,379.627197 
	C665.328735,381.567322 675.962402,386.808136 687.199829,388.086884 
	C696.513184,389.146698 701.915100,393.830933 707.388184,400.043915 
	C711.887207,405.151093 717.587524,409.382599 721.258484,414.983337 
	C724.664307,420.179626 729.408020,423.654297 733.550537,427.869141 
	C737.288269,431.672119 741.486938,435.054016 745.684875,438.364838 
	C751.601990,443.031586 758.523438,443.946991 765.803833,443.095367 
	C771.482483,442.431091 777.052856,443.020630 782.850159,440.661499 
	C789.305603,438.034607 792.030701,433.437042 794.350891,427.937347 
	C797.327393,420.882111 801.271057,415.635773 809.799255,414.585236 
	C813.544739,414.123871 816.903015,413.859100 820.385986,415.098083 
	C822.548096,415.867249 824.229126,417.062897 824.294189,419.673340 
	C824.349304,421.887665 824.479065,424.016510 821.754089,424.969971 
	C819.731873,425.677551 819.069031,427.442169 819.323181,429.419220 
	C820.573303,439.141632 817.418396,448.345154 816.204956,457.782532 
	C815.765442,461.200409 812.257324,460.963257 811.123840,463.481934 
	C809.295471,467.545197 806.178040,470.075317 802.113281,472.533051 
	C797.599854,475.262054 793.124939,477.658264 788.205627,479.372498 
	C787.142212,479.743073 786.702087,480.403473 786.353271,481.448334 
	C784.822754,486.031555 782.509705,487.288116 777.984375,485.451019 
	C773.960327,483.817444 769.699463,484.367035 765.880920,482.744965 
	C765.212402,484.451721 766.096985,484.924377 766.594299,485.492584 
	C768.663635,487.856720 768.947083,490.326843 766.693176,492.597687 
	C764.383362,494.924744 761.303162,495.064819 758.972961,493.147278 
	C756.275696,490.927673 753.356567,489.087433 750.443542,487.050995 
	C750.059082,489.013611 749.449219,490.837799 746.901855,490.933929 
	C744.600159,491.020782 742.841187,490.628723 741.585999,488.231812 
	C738.383179,482.115753 731.840332,480.191284 726.384766,476.732452 
	C724.776611,477.612091 724.674866,478.943817 725.365662,480.464569 
	C730.033325,490.740631 730.038086,490.738464 720.736450,496.894287 
	C724.577942,504.956635 724.183411,513.968567 722.940125,522.343323 
	C721.858704,529.627441 722.352478,536.699341 722.074707,543.858032 
	C721.730286,552.733704 726.249451,559.828308 731.420288,566.255920 
	C737.385071,573.670471 743.778992,580.797974 751.265137,586.828613 
	C754.137634,589.142578 755.390320,592.409424 755.054077,596.097656 
	C754.156677,605.941162 755.583557,615.736145 756.694336,625.389893 
	C757.751648,634.579163 759.705627,643.822205 762.736267,652.741760 
	C765.271423,660.202820 765.865112,668.087708 764.742615,675.835510 
	C764.156677,679.879822 760.578796,683.180969 760.815063,687.773376 
	C760.879211,689.020752 759.093689,689.265686 757.951233,689.162231 
	C747.278625,688.196289 736.871887,691.638916 726.189636,690.973450 
	C722.073730,690.716919 720.729004,689.590393 720.403137,685.166992 
	C719.762390,676.467651 723.875122,670.959839 730.543884,666.640625 
	C733.938354,664.442139 735.420227,661.470947 735.252808,657.503296 
	C735.133362,654.674561 734.887634,651.815308 735.154114,649.013000 
	C735.876587,641.416504 733.200256,634.457153 731.799988,627.207397 
	C729.934326,617.548645 723.651855,610.119385 720.054138,601.366516 
	C718.079834,596.563354 713.523315,591.844177 709.217957,587.899536 
	C707.649536,586.462463 705.648682,585.428467 703.412598,585.207947 
	C701.783813,585.047363 700.511658,584.195984 699.682739,582.938965 
	C693.470276,573.517639 684.822632,566.796326 676.002930,559.961731 
	C671.029419,556.107605 666.059814,552.394714 660.834106,548.901489 
	C658.675781,547.458679 656.669800,544.546570 656.235229,542.020508 
	C655.276245,536.446411 653.060913,532.073792 649.042480,528.011047 
	C644.983337,523.907104 644.728088,517.101501 639.336121,513.505005 
	C636.533936,511.635925 633.618042,511.634277 632.435181,514.944519 
	C631.343750,517.998718 629.207336,520.306519 626.686768,521.578247 
	C621.562866,524.163635 622.111816,527.930664 622.347595,532.667297 
	C622.652283,538.786377 625.207642,544.171814 626.626709,549.864380 
	C627.779236,554.487366 630.720093,558.963989 633.813049,562.729004 
	C637.793518,567.574341 641.645386,572.477539 645.291382,577.573181 
	C646.624023,579.435608 648.442871,580.888245 650.533875,582.095459 
	C654.997864,584.672607 656.401367,592.340088 656.082336,597.366455 
	C655.533630,606.013672 648.845215,611.016846 645.437256,617.871033 
	C640.760010,627.277893 636.625671,636.961914 631.651123,646.224854 
	C628.505493,652.082214 625.983154,658.032166 625.870117,664.964233 
	C625.792786,669.710327 621.671082,672.907776 616.720947,672.939819 
	C612.513733,672.967102 609.157959,674.068359 606.577515,677.720459 
	C602.320435,683.745605 596.815491,680.723816 591.694397,679.194458 
	C584.131836,676.935974 579.312744,671.008667 579.734253,665.004517 
	C579.860352,663.207703 580.532288,661.890869 581.759949,660.631836 
	C586.791260,655.472168 592.140625,650.763428 598.852112,647.861145 
	C599.303406,647.665955 599.878967,647.518188 600.141174,647.160889 
	C608.145752,636.252930 615.453186,625.266541 618.103821,611.355469 
	C619.876892,602.049988 615.856018,595.641724 612.530701,588.029175 
	C610.016541,582.273743 607.359070,576.821350 603.229126,572.335876 
	C597.728394,566.361694 592.679382,559.686157 584.621460,556.635803 
	C582.826782,555.956421 582.019653,554.230286 581.210083,552.527527 
	C579.020203,547.921570 575.879700,544.166138 571.187683,541.851990 
	C569.831482,541.183105 568.285217,540.076233 568.361755,538.577332 
	C568.623108,533.460938 564.539978,531.219421 562.034058,527.816284 
	C558.540955,523.072571 555.125366,518.058533 554.898071,511.798401 
	C554.827759,509.863251 554.258057,508.037079 553.204956,506.657043 
	C550.729004,503.412415 548.328003,500.517181 547.721191,496.016846 
	C547.179260,491.997375 542.951721,490.915466 539.567749,493.557434 
	C535.941223,496.388702 531.112610,496.100128 527.534058,499.056000 
	C522.838989,502.934143 515.789856,503.265045 512.199036,508.963776 
	C511.945740,509.365814 511.504211,509.743103 511.064850,509.920288 
	C503.171631,513.104004 497.008850,519.693665 488.200684,521.191467 
	C483.866760,521.928467 480.236176,524.806702 475.988464,526.257019 
	C469.281799,528.546875 468.354431,534.877747 471.087616,542.472839 
	C475.023254,553.409363 478.718445,564.427795 480.495911,576.060059 
	C481.396698,581.955139 484.828522,587.314575 485.896790,593.379456 
	C487.341644,601.582458 493.704559,608.095337 493.828247,617.031799 
	C493.868011,619.902893 497.508759,622.730591 498.090118,626.262146 
	C498.660553,629.727417 499.168243,633.059143 493.944763,633.302856 
	C491.004547,633.440063 490.267456,635.706360 490.277802,638.310913 
	C490.294983,642.643677 490.403320,646.982483 490.219177,651.307861 
	C490.028595,655.784973 491.559875,660.538330 487.613861,664.488281 
	C486.647919,665.455200 487.139648,668.013000 487.185638,669.833679 
	C487.434540,679.687805 486.097260,679.784790 477.278412,680.576843 
	C466.622406,681.533997 455.896149,683.363586 445.088318,682.888123 
	C439.021484,682.621155 437.770844,681.392273 437.694275,675.429077 
	C437.562134,665.142029 445.554779,656.825562 456.017731,656.362976 
	C462.725159,656.066467 463.866180,654.220886 465.944885,647.710327 
	C467.837524,641.782532 467.379456,635.968262 467.598724,630.065674 
	C467.757965,625.780029 465.698181,622.253784 464.033936,618.484497 
	C461.284332,612.257080 457.611053,606.298828 457.603027,599.088074 
	C457.597351,594.007874 454.881836,589.606567 453.258575,584.976990 
	C448.765869,572.163940 441.745270,560.618286 434.429169,549.250183 
	C432.731964,546.613037 431.137146,543.864868 429.894470,540.994873 
	C428.942535,538.796387 427.629395,537.423523 425.245789,536.881287 
	C423.472046,538.914062 424.398010,541.340820 424.223389,543.564514 
	C423.999878,546.410583 426.186981,549.106140 424.467957,552.170105 
	C423.824738,553.316589 425.296844,554.590271 426.491302,555.263672 
	C429.756409,557.104614 431.297852,559.957031 430.513123,563.521423 
	C429.481720,568.206665 427.493958,572.514465 421.939240,573.195068 
	C415.827515,573.943787 411.440948,576.863037 408.751587,582.426575 
	C408.341919,583.274048 407.528168,584.129700 406.686340,584.533997 
	C395.707520,589.806763 386.189545,597.453674 375.780151,603.549927 
	C366.361115,609.066162 357.838593,615.727905 348.854980,621.765076 
	C345.167328,624.243225 343.269043,629.017212 339.705292,632.037476 
	C337.579071,633.839478 336.015900,636.333191 332.805878,636.614075 
	C331.985474,636.685852 331.009644,637.570740 330.512726,638.343933 
	C326.322510,644.863220 322.167389,651.406982 318.131134,658.022278 
	C316.418243,660.829773 315.304504,663.958618 311.750397,665.270081 
	C310.506287,665.729187 308.962341,667.272278 308.815063,668.474731 
	C308.218048,673.348572 304.837311,672.952332 301.457886,672.969421 
	C298.178040,672.986023 295.304260,672.903259 292.798920,676.379150 
	C290.422729,679.675720 285.571747,678.039124 282.461182,677.105286 
	C277.005432,675.467346 271.505402,673.164673 267.598755,668.453491 
	C264.968628,665.281738 265.039185,662.390686 267.475952,659.034180 
	C273.396484,650.878967 280.974365,644.701050 288.990112,638.696411 
	C292.327728,636.196228 297.188141,633.392944 297.076111,627.667297 
	C297.046783,626.169861 298.211761,625.240967 299.560791,624.856323 
	C305.532043,623.153992 309.101135,618.572937 312.461304,613.900513 
	C319.588135,603.990601 328.500427,596.593994 339.554138,591.100098 
	C345.117279,588.335205 349.285461,582.742188 354.402832,578.766113 
	C363.466522,571.723816 369.046570,561.755188 375.570465,552.598877 
	C377.097687,550.455444 376.928070,547.673645 375.796234,545.943787 
	C372.142456,540.359436 371.458374,532.311951 363.315765,530.254333 
	C361.734070,529.854614 361.821503,528.299194 361.637909,526.958191 
	C361.173096,523.562378 359.760925,520.957458 356.700500,518.849426 
	C353.485229,516.634766 352.259064,512.778015 351.722565,508.930878 
	C351.258453,505.602600 349.913666,503.641785 346.583344,501.912537 
	C341.507935,499.277161 335.307037,497.214081 334.355103,490.079651 
	C326.328735,492.900208 323.539001,499.174164 321.505096,506.091400 
	C319.935425,511.429840 315.702240,513.746155 310.825470,512.072937 
	C307.532745,510.943176 306.130524,505.817841 307.880981,501.268524 
	C309.125793,498.033295 311.100189,494.877533 311.441284,491.552155 
	C311.785553,488.195709 314.174225,485.488739 313.974762,481.932129 
	C309.027191,480.102661 304.593231,477.582489 300.090332,475.156494 
	C296.914276,473.445404 292.799072,473.551880 289.181793,472.373535 
	C284.645508,470.895813 279.714630,470.423370 275.797913,467.419128 
	C269.963135,462.943634 265.277161,466.998596 260.696930,469.589966 
	C255.565826,472.493042 251.408844,476.971924 245.315445,478.376923 
	C239.207306,479.785370 233.080704,479.761810 227.088654,478.595673 
	C223.961685,477.987091 221.624969,475.770752 220.402359,471.995148 
	C218.776108,466.972900 214.054459,464.205292 209.500610,461.835999 
	C207.422729,460.754913 206.060593,459.559296 205.674164,457.100128 
	C205.427261,455.528961 204.537552,454.079834 203.169189,452.920990 
	C198.867844,449.278259 198.490372,445.929321 202.237122,441.537628 
	C206.265244,436.816101 209.575516,431.484222 215.936096,428.917511 
	C219.212585,427.595337 221.245972,424.785858 219.759521,419.629730 
	C217.137817,410.535614 216.624420,401.487793 225.891693,394.293579 
	C233.581360,388.324066 237.220123,378.786682 242.556915,370.762421 
	C244.282028,368.168579 243.417892,365.239105 242.354553,363.119019 
	C237.666489,353.771881 242.997482,346.918213 247.674744,339.957581 
	C249.316116,337.514923 251.774292,335.593323 253.982178,333.567535 
	C255.887299,331.819550 258.237579,331.636292 260.519318,332.649200 
	C262.671814,333.604736 262.056885,335.753326 262.109070,337.508911 
	C262.208984,340.867462 260.511627,343.558014 258.545410,346.048340 
	C255.880844,349.423157 255.315796,352.380188 257.351349,356.779785 
	C260.096985,362.714111 265.104767,367.100647 267.361603,373.233307 
	C268.198975,375.508850 270.261383,375.212341 272.037903,374.545197 
	C273.629852,373.947327 274.683807,372.635742 275.546539,371.138611 
	C279.168304,364.853546 282.238617,358.725220 291.366791,358.122620 
	C298.664276,357.640869 305.874664,355.032074 313.382111,355.120911 
	C320.258636,355.202271 321.295898,356.294495 321.477020,363.219482 
	C321.563446,366.523560 322.401917,369.834534 320.928345,373.077393 
	C320.096222,374.908600 321.310364,376.076599 322.824707,376.488220 
	C331.925903,378.962189 341.065308,381.588165 350.099426,376.210602 
	C352.393341,374.845184 354.914825,374.684143 357.358765,375.386047 
	C365.537842,377.735138 373.665619,377.624725 381.845062,375.426819 
	C383.265472,375.045135 384.815216,375.052612 386.306335,375.042511 
	C391.590668,375.006683 396.990356,375.691284 402.018646,373.604645 
	C407.793457,371.208221 413.785431,371.810669 419.715179,371.957611 
	C423.016876,372.039459 425.775330,370.185699 429.414001,370.132019 
z"/>
</svg>