<svg version="1.1" id="Layer_1" xmlns="http://www.w3.org/2000/svg" xmlns:xlink="http://www.w3.org/1999/xlink" x="0px" y="0px"
	 width="100%" viewBox="0 0 1024 1024" enable-background="new 0 0 1024 1024" xml:space="preserve">
<path fill="#000000" opacity="1.000000" stroke="none" 
	d="
M8.190530,547.580933 
	C6.356215,519.644470 6.903396,492.239410 9.465050,464.806122 
	C14.253553,413.524994 26.670204,364.206665 46.588486,316.776794 
	C74.073448,251.328964 113.745247,194.236542 165.304535,145.488358 
	C222.697845,91.224243 289.213196,52.429546 364.710632,29.177984 
	C396.918579,19.258636 429.831482,12.798157 463.408264,9.547856 
	C489.661407,7.006499 515.923828,6.188117 542.233704,7.839233 
	C604.149170,11.724838 663.573181,25.875101 720.211670,51.400036 
	C777.831970,77.367416 828.952942,112.728378 873.207886,157.828278 
	C939.159668,225.039291 983.239014,304.497345 1005.225586,396.080444 
	C1013.166931,429.159241 1017.547058,462.736664 1018.451233,496.801422 
	C1021.845459,624.685364 983.142883,738.398987 901.583130,836.660889 
	C826.035767,927.679260 729.273499,984.688843 613.441528,1008.949585 
	C576.637695,1016.658081 539.307983,1019.918884 501.729919,1018.891357 
	C410.737305,1016.403564 326.012939,992.123779 248.466034,944.149536 
	C156.524704,887.270142 89.447662,808.768921 46.814766,709.510681 
	C28.916815,667.840576 17.298271,624.344910 11.498772,579.313599 
	C10.158898,568.909973 9.170527,558.484436 8.190530,547.580933 
M102.446114,759.108948 
	C133.215332,810.430542 172.115891,854.666931 219.563339,891.050903 
	C312.770111,962.524475 418.203491,995.898132 535.679749,990.962769 
	C576.660828,989.241028 616.688293,982.187744 655.793091,969.932739 
	C718.475037,950.289001 774.726501,919.008240 824.548828,876.186768 
	C879.651123,828.827271 922.077209,771.957214 951.322327,705.488586 
	C981.731628,636.374146 994.844421,563.985657 990.947327,488.488281 
	C989.467163,459.814087 985.752441,431.501129 979.097839,403.607971 
	C955.321228,303.947266 905.058411,219.990082 827.860779,152.714462 
	C740.103027,76.235863 637.427856,37.310135 521.148987,34.447628 
	C486.763916,33.601147 452.585999,36.701763 418.879486,43.588619 
	C325.480896,62.671654 244.711823,105.809875 176.636581,172.445099 
	C141.139603,207.191193 112.099319,246.873306 88.978874,290.873688 
	C54.457035,356.571991 36.630459,426.642334 34.423058,500.687164 
	C33.433796,533.870728 36.199493,566.831970 42.182743,599.535706 
	C52.542343,656.160095 72.534027,709.108276 102.446114,759.108948 
z"/>
<path fill="#000000" opacity="1.000000" stroke="none" 
	d="
M640.759155,574.369873 
	C641.553589,576.900024 643.009033,578.943359 644.870239,579.650452 
	C649.884949,581.555786 650.833496,586.424011 653.350403,590.128784 
	C654.472717,591.780884 652.338196,601.720703 650.713806,603.598267 
	C645.129883,610.052429 641.610657,617.715393 637.964661,625.311401 
	C634.474060,632.583923 630.899292,639.815918 627.378235,647.073792 
	C625.136047,651.695618 623.194031,656.340576 623.165466,661.680969 
	C623.139282,666.567139 619.600525,669.933044 614.602112,670.226990 
	C610.292847,670.480286 606.590576,671.583313 603.922546,675.333740 
	C601.417847,678.854614 597.659851,678.762573 593.958618,677.983215 
	C588.302612,676.792175 583.732483,673.495544 579.366638,669.926636 
	C577.089478,668.065186 577.175781,661.238098 579.474426,658.911316 
	C584.544739,653.778992 589.613831,648.629761 596.533936,645.919434 
	C596.996948,645.738159 597.673157,645.674072 597.881226,645.331360 
	C603.625061,635.870300 612.075684,627.992188 613.945557,616.229858 
	C614.436157,613.144348 614.906738,609.803345 616.262085,606.747803 
	C617.964355,602.909973 615.940002,598.697083 614.514465,595.880127 
	C610.554016,588.053833 607.994324,579.334534 601.840149,572.710144 
	C596.057800,566.486023 590.735291,559.715332 582.583740,556.227356 
	C581.009705,555.553833 580.129211,554.158630 579.413574,552.551575 
	C577.335083,547.884460 574.273254,544.080017 569.523376,541.784241 
	C568.194519,541.142029 566.736816,539.981201 566.890381,538.385193 
	C567.292175,534.209839 564.307922,532.188293 561.960693,529.643066 
	C557.506226,524.812744 554.436890,519.217285 553.749878,512.597351 
	C553.547607,510.648438 552.774841,509.050415 551.824646,507.541748 
	C549.688904,504.150818 546.897522,501.415680 546.537781,496.795410 
	C546.242065,492.997772 542.304932,491.895020 538.937134,494.194214 
	C534.654114,497.118256 528.857422,497.210754 525.240662,500.465454 
	C521.120789,504.173035 514.438660,503.759155 511.862762,509.485687 
	C511.561951,510.154480 510.694031,510.714661 509.961761,511.020477 
	C502.277161,514.229919 495.634766,519.328674 487.498322,522.017456 
	C482.088379,523.805237 475.760986,525.289673 471.502075,530.233154 
	C469.370056,532.707947 468.733398,534.932861 470.066132,537.905762 
	C474.605011,548.030396 477.304260,558.892090 479.578674,569.544556 
	C481.644379,579.219788 486.066345,588.103882 487.460144,597.917603 
	C487.948090,601.353027 491.604919,603.855286 492.136841,607.667847 
	C492.930054,613.353210 495.214233,618.555115 497.408539,623.809692 
	C499.448151,628.693787 498.705536,630.000000 493.626862,631.341125 
	C491.015656,632.030701 490.247711,633.760193 490.242371,636.148682 
	C490.231964,640.814636 490.340485,645.484436 490.184479,650.145447 
	C490.050964,654.133545 491.316132,658.352600 487.638336,661.806213 
	C486.663177,662.721924 487.161377,665.307434 487.146576,667.127625 
	C487.078979,675.440063 484.969604,678.455139 476.787201,678.069397 
	C466.409515,677.580139 456.400269,680.575806 446.097198,680.137146 
	C439.532928,679.857666 438.619751,679.084900 438.656006,672.521729 
	C438.712341,662.313599 446.600708,654.274353 456.862885,653.966492 
	C463.426514,653.769531 464.677521,652.596558 465.941803,645.881531 
	C466.515564,642.834167 467.792694,640.033813 467.829498,636.747009 
	C467.917633,628.870789 467.264618,621.506714 462.987427,614.407776 
	C458.081604,606.265442 458.216675,596.311035 454.936584,587.500000 
	C452.406067,580.702576 449.368378,574.162170 446.271759,567.594849 
	C441.804718,558.121216 434.447113,550.450195 430.746521,540.652771 
	C430.162598,539.106812 429.321289,537.792419 427.616302,537.967407 
	C425.432861,538.191467 424.960052,540.239258 425.393158,541.773987 
	C426.775940,546.674072 424.205170,552.173218 429.571777,556.658997 
	C434.562073,560.830139 431.118042,571.470093 422.664581,572.733215 
	C416.848297,573.602356 412.989258,576.560303 410.140564,581.466492 
	C408.026154,585.108032 403.468842,585.289917 400.360748,587.872131 
	C397.101288,590.580078 393.284912,593.231506 388.807831,594.449951 
	C385.224548,595.425171 383.725433,599.399353 380.211121,601.023987 
	C369.562866,605.946106 360.752045,613.806091 351.270905,620.531738 
	C347.439880,623.249329 344.974945,628.079407 341.295166,631.426880 
	C339.828949,632.760681 338.585205,634.414612 336.314117,634.438049 
	C335.025208,634.451355 334.086548,635.167175 333.541595,636.275024 
	C329.738953,644.005249 323.573608,650.287964 320.111542,658.220825 
	C319.349182,659.967590 318.307068,661.427551 316.460114,662.105713 
	C314.814575,662.709961 313.058868,663.739990 312.795593,665.265076 
	C311.871033,670.621704 308.157654,670.473938 304.170563,670.242188 
	C301.283966,670.074402 298.881470,670.359375 296.951141,673.371094 
	C294.663513,676.940247 290.209442,675.692505 287.293640,674.856995 
	C281.466400,673.187195 275.649445,670.831055 271.573547,665.791504 
	C269.124603,662.763550 269.326599,660.024658 271.586945,656.804749 
	C277.296387,648.671692 284.751678,642.654236 292.718811,636.845886 
	C296.062347,634.408325 300.861755,631.609375 300.811462,625.956421 
	C300.792633,623.838562 302.756836,623.098450 304.162720,622.698059 
	C309.749146,621.107117 312.805878,616.649597 315.812286,612.414062 
	C322.723541,602.677246 331.347931,595.373108 342.262451,590.322388 
	C347.433777,587.929260 350.929565,582.769714 355.564362,579.218506 
	C365.025299,571.969482 371.355377,561.857544 377.908508,552.060120 
	C379.117798,550.252136 379.286499,547.814087 378.298676,546.319519 
	C374.633911,540.774353 374.033905,532.755127 366.029297,530.575989 
	C365.438263,530.415100 364.512085,529.841187 364.500458,529.437378 
	C364.236420,520.281616 353.065216,516.462524 353.497681,506.906738 
	C353.553070,505.682861 352.491455,504.184570 350.952301,503.440277 
	C345.190796,500.654266 339.258850,498.041473 336.776184,491.536896 
	C329.662720,494.162384 326.334625,499.336639 325.116974,506.036316 
	C324.697723,508.343079 323.553467,509.975800 321.908875,511.477600 
	C319.478699,513.696777 316.555908,513.586365 313.933960,512.578308 
	C311.428284,511.614899 310.606079,508.958435 310.612671,506.377289 
	C310.621246,503.029846 311.387573,499.748108 313.090973,496.867584 
	C315.580536,492.657593 315.554657,487.816345 317.299438,483.276031 
	C312.338867,481.057526 307.922455,478.283875 303.401855,476.291992 
	C298.803650,474.265961 293.282837,473.677887 288.169739,472.428558 
	C286.379517,471.991150 284.688629,471.487457 283.021606,470.755280 
	C279.845490,469.360321 276.628967,465.661316 273.665222,466.747528 
	C269.042023,468.441925 264.155182,470.406250 260.398285,474.029449 
	C252.074814,482.056702 241.825180,480.874573 231.758926,479.634857 
	C228.949722,479.288879 226.145950,477.491821 225.736038,473.781738 
	C225.620789,472.738556 224.851944,471.570251 224.042709,470.832581 
	C218.148392,465.459961 211.730789,460.714722 207.167694,453.888702 
	C205.101532,450.797852 204.646103,447.183197 208.040695,443.211212 
	C211.855743,438.747284 214.953171,433.779144 220.922623,431.270599 
	C224.063873,429.950592 225.726181,426.968353 225.156357,421.957916 
	C224.499298,416.180420 219.886841,409.842102 224.970398,403.913605 
	C228.952271,399.269806 233.347153,394.935852 236.934631,390.009857 
	C241.056610,384.349976 245.118454,378.575836 248.047729,372.136932 
	C248.540146,371.054504 247.938202,370.246857 247.554840,369.329468 
	C242.949249,358.308228 246.780991,349.375885 254.619843,341.548035 
	C256.656860,339.513855 258.081024,336.603485 261.708954,336.568085 
	C264.714508,336.538757 266.386047,337.237762 266.377167,340.703064 
	C266.370789,343.186218 265.522461,345.212524 264.459747,347.285034 
	C259.561218,356.838196 260.016724,360.897583 267.237885,369.205414 
	C268.908417,371.127350 270.342926,373.262848 271.024170,375.531311 
	C272.405457,380.130585 274.704681,378.798950 277.318329,377.055756 
	C279.078705,375.881714 279.717926,373.883911 280.608795,372.143036 
	C284.135742,365.250671 289.800110,361.497589 297.395660,361.012299 
	C304.317017,360.570068 310.964996,358.044189 318.061981,358.824982 
	C323.273163,359.398376 324.864136,360.615906 324.998505,365.838989 
	C325.049896,367.837158 325.576263,370.072845 324.882568,371.796295 
	C322.194855,378.473602 325.919159,380.215149 331.360016,381.259033 
	C338.152344,382.562256 344.880951,383.711914 351.326843,380.072205 
	C353.938354,378.597565 356.827393,378.062286 359.540405,378.791718 
	C372.154175,382.183044 385.134705,380.262177 397.124023,378.033905 
	C418.191956,374.118286 439.173615,374.004791 460.311523,373.621765 
	C464.236298,373.550659 467.697388,375.162964 471.551605,375.207092 
	C481.364807,375.319458 490.837494,372.917084 500.443451,371.616241 
	C510.765411,370.218475 520.982910,368.345062 531.484070,368.747070 
	C539.138550,369.040100 546.822815,369.044739 554.475952,368.735809 
	C561.269592,368.461609 568.082886,366.774811 574.808472,367.145477 
	C585.955017,367.759827 597.072815,369.130310 608.111816,371.119049 
	C623.079590,373.815643 637.037048,380.114441 651.819885,383.167145 
	C662.341858,385.339996 672.638611,387.966431 682.744690,391.501434 
	C683.050842,391.608521 683.412964,391.657776 683.731567,391.612244 
	C692.835327,390.309814 697.505737,396.754211 702.639832,402.403381 
	C707.315552,407.548157 713.129822,411.718842 716.849731,417.635193 
	C719.875000,422.446808 724.486816,425.503418 728.158020,429.558563 
	C731.237183,432.959686 735.132507,435.397736 738.394714,438.656403 
	C744.393738,444.648834 752.280579,445.872070 760.529846,445.051178 
	C766.067932,444.500061 771.437134,444.611572 777.052002,442.519409 
	C783.944458,439.951172 786.140137,434.825623 788.667664,429.298981 
	C791.434814,423.248199 794.833557,418.487854 802.322021,417.317108 
	C806.314270,416.692993 809.796509,415.818298 813.704529,417.570496 
	C818.063965,419.525116 819.097534,424.231903 815.256287,427.138733 
	C813.533691,428.442230 812.852722,429.947662 813.109131,431.822632 
	C814.444397,441.584137 811.366333,450.771454 809.364624,460.060913 
	C808.686829,463.206329 804.980591,464.478882 803.213623,467.347443 
	C799.647339,473.137146 793.271667,475.820465 787.485107,478.851410 
	C784.420105,480.456818 781.268616,480.967163 779.978149,485.157593 
	C778.918640,488.597870 774.973816,487.502197 772.566650,486.560669 
	C768.441650,484.947327 764.074219,485.636963 759.546387,483.802246 
	C759.888428,484.878601 759.896545,485.376282 760.149536,485.626831 
	C762.509888,487.965424 764.055725,490.625153 761.217285,493.393494 
	C758.389832,496.151123 755.133179,495.811859 752.366638,493.047577 
	C750.544800,491.227295 748.448792,490.028870 746.067261,489.238739 
	C741.666138,493.379791 739.603760,493.334808 736.007385,488.119873 
	C732.402893,482.893280 726.525574,481.233490 721.669373,477.804199 
	C719.337158,479.455688 719.751709,480.870026 721.344971,482.749420 
	C725.629395,487.803253 725.106567,492.007874 719.447998,495.395264 
	C715.060303,498.021881 716.946533,501.701141 717.915405,504.527161 
	C719.343872,508.693634 719.181702,512.636841 718.614990,516.759277 
	C717.176086,527.226074 716.026550,537.853027 717.640015,548.239746 
	C718.598633,554.411255 721.929077,560.352051 726.147217,565.433777 
	C732.343872,572.899109 738.993774,579.896667 746.398987,586.183777 
	C748.650757,588.095520 749.749268,590.706482 749.452026,593.726257 
	C748.438049,604.029846 750.504150,614.189636 751.605225,624.297241 
	C752.786377,635.139954 756.093567,645.768555 758.467041,656.479614 
	C760.019775,663.487000 761.333130,671.218323 756.948242,678.153198 
	C756.771729,678.432312 756.495789,678.758362 756.521362,679.039368 
	C757.297729,687.571289 751.387024,686.428284 746.094360,686.342834 
	C737.617737,686.205994 729.233826,687.943481 720.711304,687.495422 
	C717.068359,687.303894 716.045898,686.066956 715.680725,682.493958 
	C714.834778,674.216858 719.050598,668.810486 725.169800,664.591553 
	C729.010559,661.943604 730.264465,658.665344 730.729858,654.238098 
	C732.007812,642.080994 728.250427,630.784424 725.366638,619.333191 
	C724.899109,617.476807 723.519348,615.831787 722.473694,614.143372 
	C720.394653,610.786438 718.279541,607.561218 717.314209,603.543335 
	C716.563904,600.420471 713.537903,598.148071 711.926758,595.506470 
	C707.963074,589.007812 701.162292,586.552063 696.167358,581.955139 
	C691.493958,577.654114 687.401550,572.103088 682.480469,567.808777 
	C675.016968,561.295837 667.642212,554.582031 658.784424,549.789551 
	C655.530334,548.028931 653.836426,544.429443 652.768005,540.990540 
	C651.465942,536.799622 651.064636,532.565430 646.866028,529.577637 
	C644.927368,528.198120 643.063843,525.515991 642.637390,522.467529 
	C642.032043,518.140747 638.287964,515.929199 635.382629,513.474060 
	C633.655273,512.014404 630.901550,512.678894 629.721497,515.482666 
	C628.375061,518.682068 625.910706,520.820923 623.016296,522.617554 
	C619.703857,524.673645 619.117493,527.851074 619.410461,531.523804 
	C619.887268,537.501587 621.710205,543.204102 623.529419,548.771851 
	C625.138916,553.697754 627.831970,558.546631 631.101013,562.573425 
	C634.216736,566.411438 637.078613,570.518005 640.759155,574.369873 
z"/>
</svg>